<?xml version="1.0" encoding="UTF-8" standalone="no"?>
<!-- Created with Inkscape (http://www.inkscape.org/) -->

<svg
   xmlns:dc="http://purl.org/dc/elements/1.1/"
   xmlns:cc="http://creativecommons.org/ns#"
   xmlns:rdf="http://www.w3.org/1999/02/22-rdf-syntax-ns#"
   xmlns:svg="http://www.w3.org/2000/svg"
   xmlns="http://www.w3.org/2000/svg"
   xmlns:xlink="http://www.w3.org/1999/xlink"
   xmlns:sodipodi="http://sodipodi.sourceforge.net/DTD/sodipodi-0.dtd"
   xmlns:inkscape="http://www.inkscape.org/namespaces/inkscape"
   width="1000"
   height="1000"
   id="svg2"
   version="1.1"
   inkscape:version="0.48.2 r9819"
   sodipodi:docname="Rocket.svg">
  <defs
     id="defs4">
    <linearGradient
       id="linearGradient3943"
       inkscape:collect="always">
      <stop
         id="stop3945"
         offset="0"
         style="stop-color:#ffb380;stop-opacity:0.80912863" />
      <stop
         id="stop3947"
         offset="1"
         style="stop-color:#4d4d4d;stop-opacity:0;" />
    </linearGradient>
    <linearGradient
       inkscape:collect="always"
       id="linearGradient3924">
      <stop
         style="stop-color:#4d4d4d;stop-opacity:1;"
         offset="0"
         id="stop3926" />
      <stop
         style="stop-color:#4d4d4d;stop-opacity:0;"
         offset="1"
         id="stop3928" />
    </linearGradient>
    <linearGradient
       inkscape:collect="always"
       id="linearGradient3912">
      <stop
         style="stop-color:#000000;stop-opacity:1;"
         offset="0"
         id="stop3914" />
      <stop
         style="stop-color:#4d4d4d;stop-opacity:1"
         offset="1"
         id="stop3916" />
    </linearGradient>
    <linearGradient
       id="linearGradient3867"
       inkscape:collect="always">
      <stop
         id="stop3869"
         offset="0"
         style="stop-color:#ffffff;stop-opacity:0" />
      <stop
         id="stop3871"
         offset="1"
         style="stop-color:#ffffff;stop-opacity:0.502" />
    </linearGradient>
    <linearGradient
       id="linearGradient3857"
       inkscape:collect="always">
      <stop
         id="stop3859"
         offset="0"
         style="stop-color:#808080;stop-opacity:0.502" />
      <stop
         id="stop3861"
         offset="1"
         style="stop-color:#550000;stop-opacity:0" />
    </linearGradient>
    <linearGradient
       inkscape:collect="always"
       id="linearGradient3845">
      <stop
         style="stop-color:#ffffff;stop-opacity:0.6"
         offset="0"
         id="stop3847" />
      <stop
         style="stop-color:#ffffff;stop-opacity:0"
         offset="1"
         id="stop3849" />
    </linearGradient>
    <linearGradient
       inkscape:collect="always"
       id="linearGradient3829">
      <stop
         style="stop-color:#550000;stop-opacity:0.502"
         offset="0"
         id="stop3831" />
      <stop
         style="stop-color:#550000;stop-opacity:0"
         offset="1"
         id="stop3833" />
    </linearGradient>
    <linearGradient
       inkscape:collect="always"
       id="linearGradient3810">
      <stop
         style="stop-color:#ffffff;stop-opacity:0.69999999"
         offset="0"
         id="stop3812" />
      <stop
         style="stop-color:#ffffff;stop-opacity:0;"
         offset="1"
         id="stop3814" />
    </linearGradient>
    <linearGradient
       inkscape:collect="always"
       id="linearGradient3770">
      <stop
         style="stop-color:#ffffff;stop-opacity:0.502"
         offset="0"
         id="stop3772" />
      <stop
         style="stop-color:#ffffff;stop-opacity:0"
         offset="1"
         id="stop3774" />
    </linearGradient>
    <linearGradient
       inkscape:collect="always"
       xlink:href="#linearGradient3857"
       id="linearGradient3776"
       x1="616"
       y1="841"
       x2="611.15625"
       y2="111"
       gradientUnits="userSpaceOnUse"
       gradientTransform="matrix(0,1,-1,0,1014.4622,15.537801)" />
    <linearGradient
       inkscape:collect="always"
       xlink:href="#linearGradient3810"
       id="linearGradient3816"
       x1="244.82935"
       y1="657.70331"
       x2="238.49582"
       y2="893.70331"
       gradientUnits="userSpaceOnUse"
       gradientTransform="matrix(0,1,-1,0,1014.4622,15.537801)" />
    <linearGradient
       inkscape:collect="always"
       xlink:href="#linearGradient3829"
       id="linearGradient3835"
       x1="498.36868"
       y1="807.63501"
       x2="504.35559"
       y2="392.01001"
       gradientUnits="userSpaceOnUse"
       gradientTransform="matrix(0,-0.38815788,-0.42105262,0,443.39453,509.16561)" />
    <linearGradient
       inkscape:collect="always"
       xlink:href="#linearGradient3845"
       id="linearGradient3851"
       x1="500"
       y1="729.36218"
       x2="501"
       y2="971.36218"
       gradientUnits="userSpaceOnUse"
       gradientTransform="matrix(0.81428571,0,0,0.81428571,107.89494,-931.55712)" />
    <linearGradient
       inkscape:collect="always"
       xlink:href="#linearGradient3770"
       id="linearGradient3855"
       gradientUnits="userSpaceOnUse"
       x1="616"
       y1="841"
       x2="611.15625"
       y2="111"
       gradientTransform="matrix(0,0.95855519,-0.95855519,0,991.90327,36.260207)" />
    <linearGradient
       inkscape:collect="always"
       xlink:href="#linearGradient3867"
       id="linearGradient3865"
       gradientUnits="userSpaceOnUse"
       gradientTransform="matrix(0,-0.95855519,-0.95855519,0,991.90327,996.9716)"
       x1="616"
       y1="841"
       x2="611.15625"
       y2="111" />
    <linearGradient
       inkscape:collect="always"
       xlink:href="#linearGradient3912"
       id="linearGradient3918"
       x1="252"
       y1="996"
       x2="998"
       y2="6"
       gradientUnits="userSpaceOnUse" />
    <linearGradient
       inkscape:collect="always"
       xlink:href="#linearGradient3924"
       id="linearGradient3930"
       x1="494"
       y1="3"
       x2="498"
       y2="919"
       gradientUnits="userSpaceOnUse" />
    <linearGradient
       inkscape:collect="always"
       xlink:href="#linearGradient3943"
       id="linearGradient3941"
       gradientUnits="userSpaceOnUse"
       x1="494"
       y1="3"
       x2="500"
       y2="1387.4159" />
    <linearGradient
       inkscape:collect="always"
       xlink:href="#linearGradient3943"
       id="linearGradient3996"
       gradientUnits="userSpaceOnUse"
       x1="494"
       y1="3"
       x2="500"
       y2="1387.4159"
       gradientTransform="matrix(1,0,0,1.0375395,0,-34.536325)" />
    <linearGradient
       inkscape:collect="always"
       xlink:href="#linearGradient3829"
       id="linearGradient3058"
       gradientUnits="userSpaceOnUse"
       gradientTransform="matrix(0,0.38815788,-0.42105262,0,443.39453,519.9503)"
       x1="498.36868"
       y1="807.63501"
       x2="504.35559"
       y2="392.01001" />
  </defs>
  <sodipodi:namedview
     id="base"
     pagecolor="#ffffff"
     bordercolor="#666666"
     borderopacity="1.0"
     inkscape:pageopacity="0.0"
     inkscape:pageshadow="2"
     inkscape:zoom="0.5"
     inkscape:cx="403.28741"
     inkscape:cy="570.22985"
     inkscape:document-units="px"
     inkscape:current-layer="layer2"
     showgrid="false"
     inkscape:window-width="1440"
     inkscape:window-height="852"
     inkscape:window-x="0"
     inkscape:window-y="0"
     inkscape:window-maximized="1" />
  <metadata
     id="metadata7">
    <rdf:RDF>
      <cc:Work
         rdf:about="">
        <dc:format>image/svg+xml</dc:format>
        <dc:type
           rdf:resource="http://purl.org/dc/dcmitype/StillImage" />
        <dc:title />
      </cc:Work>
    </rdf:RDF>
  </metadata>
  <g
     inkscape:groupmode="layer"
     id="layer9"
     inkscape:label="Background">
    <rect
       style="fill:url(#linearGradient3918);fill-opacity:1;fill-rule:nonzero;stroke:none"
       id="rect3910"
       width="1000"
       height="1000"
       x="0"
       y="0" />
  </g>
  <g
     inkscape:groupmode="layer"
     id="layer3"
     inkscape:label="Wings">
    <path
       style="fill:#ff6600;fill-rule:evenodd;stroke:none"
       d="m 242.61258,201.96638 c -77.40292,0 -140.15037,37.736 -140.15037,84.28571 0,46.54971 149.5517,-30.74667 149.65037,73.28571 4.03385,54.1894 84.07144,38.7554 105.10057,13.08033 33.02913,-29.67506 25.0498,-80.09118 21.0498,-87.36604 -3.5,-28.54971 -58.24746,-83.28571 -135.65037,-83.28571 z"
       id="path4896"
       inkscape:connector-curvature="0"
       sodipodi:nodetypes="sscccs" />
    <path
       sodipodi:nodetypes="sscccs"
       inkscape:connector-curvature="0"
       id="path2995"
       d="m 242.61258,828.03362 c -77.40291,0 -140.15037,-37.736 -140.15037,-84.28571 0,-46.54971 149.5517,30.74666 149.65037,-73.28571 4.03385,-54.1894 84.07144,-38.7554 105.10057,-13.08034 33.02913,29.67507 25.0498,80.09119 21.0498,87.36605 -3.5,28.54971 -58.24746,83.28571 -135.65037,83.28571 z"
       style="fill:#d45500;fill-rule:evenodd;stroke:none" />
  </g>
  <g
     inkscape:groupmode="layer"
     id="layer7"
     inkscape:label="Side Wings Shadows">
    <path
       style="fill:#ff6600;fill-rule:evenodd;stroke:none"
       d="m 241.66952,823.03362 c -65.83637,0 -138.25638,-52.15006 -121.20731,-60.69067 14,-1.59366 64.20378,31.15211 112.28771,22.66558 35.43106,-8.09173 17.5084,-2.96407 48.39509,-16.12571 29.09351,-11.75936 65.30655,-48.87705 75.90428,-16.6893 7.02302,24.28345 -49.54338,70.8401 -115.37977,70.8401 z"
       id="path3802"
       inkscape:connector-curvature="0"
       sodipodi:nodetypes="sccccs" />
    <path
       sodipodi:nodetypes="sccccs"
       inkscape:connector-curvature="0"
       id="path3808"
       d="m 241.66952,213.36714 c -65.83637,0 -136.25638,63.15006 -119.20731,71.69067 14,1.59366 62.20378,-42.15211 110.28771,-33.66558 35.43106,8.09173 17.5084,2.96407 48.39509,16.12571 29.09351,11.75936 65.30655,48.87705 75.90428,16.6893 7.02302,-24.28345 -49.54338,-70.8401 -115.37977,-70.8401 z"
       style="fill:url(#linearGradient3816);fill-opacity:1;fill-rule:evenodd;stroke:none" />
    <path
       sodipodi:nodetypes="cccccc"
       inkscape:connector-curvature="0"
       id="path3818"
       d="m 238.61258,263.96638 c -20.40292,-8 -86.15038,-8.264 -136.15037,22.28571 0,46.54971 149.5517,-30.74667 149.65037,73.28571 4.03385,54.1894 -0.92856,1.75539 26.10057,-7.91967 -2.97087,-37.67506 -1.9502,-28.09118 -3.9502,-42.36604 -3.5,-28.54971 -18.2588,-37.96058 -35.65037,-45.28571 z"
       style="fill:url(#linearGradient3835);fill-opacity:1;fill-rule:evenodd;stroke:none" />
    <path
       style="fill:url(#linearGradient3058);fill-opacity:1;fill-rule:evenodd;stroke:none"
       d="m 238.61258,765.14953 c -20.40292,8 -86.15038,8.264 -136.15037,-22.28571 0,-46.54971 149.5517,30.74667 149.65037,-73.28571 4.03385,-54.1894 -0.92856,-1.75539 26.10057,7.91967 -2.97087,37.67506 -1.9502,28.09118 -3.9502,42.36604 -3.5,28.54971 -18.2588,37.96058 -35.65037,45.28571 z"
       id="path3056"
       inkscape:connector-curvature="0"
       sodipodi:nodetypes="cccccc" />
    <path
       sodipodi:nodetypes="cccccc"
       inkscape:connector-curvature="0"
       id="path3060"
       d="m 238.61258,765.14953 c -20.40292,8 -86.15038,8.264 -136.15037,-22.28571 0,-46.54971 149.5517,30.74667 149.65037,-73.28571 4.03385,-54.1894 -0.92856,-1.75539 26.10057,7.91967 -2.97087,37.67506 -1.9502,28.09118 -3.9502,42.36604 -3.5,28.54971 -18.2588,37.96058 -35.65037,45.28571 z"
       style="fill:url(#linearGradient3058);fill-opacity:1;fill-rule:evenodd;stroke:none" />
  </g>
  <g
     inkscape:label="Rocket"
     inkscape:groupmode="layer"
     id="layer1"
     transform="translate(0,-52.362183)"
     style="display:inline">
    <path
       sodipodi:type="arc"
       style="fill:#ff0000;fill-rule:evenodd;stroke:none"
       id="path4890"
       sodipodi:cx="574.28571"
       sodipodi:cy="476.85715"
       sodipodi:rx="217.14285"
       sodipodi:ry="332.85715"
       d="m 791.42856,476.85715 a 217.14285,332.85715 0 1 1 -434.28571,0 217.14285,332.85715 0 1 1 434.28571,0 z"
       transform="matrix(-0.38815788,0,0,0.42105262,226593.2,609.42983)" />
    <path
       style="fill:#ff6600;fill-opacity:1;fill-rule:evenodd;stroke:none"
       d="m 904.4622,567.89998 c -102,-107.92469 -236.70034,-217.15625 -430,-217.15625 -127.31506,0 -238.75478,42.19173 -300,105.25 l 0,223.8125 c 61.24522,63.05827 172.68494,105.25 300,105.25 193.29966,0 326,-107.23159 430,-217.15625 z"
       id="path3004"
       inkscape:connector-curvature="0" />
    <g
       id="g3064"
       style="fill:#e3dbdb">
      <path
         inkscape:connector-curvature="0"
         id="rect4935"
         d="m 820.4622,487.61873 c -21.97086,-18.56116 -45.2476,-36.23766 -70,-52.34375 l 0,265.5 c 24.68874,-16.10098 47.96563,-33.79213 70,-52.46875 l 0,-160.6875 z"
         style="fill:#e3dbdb;fill-opacity:1;fill-rule:nonzero;stroke:none" />
      <path
         inkscape:connector-curvature="0"
         id="rect4941"
         d="m 416.4622,353.71248 c -24.26204,2.5117 -47.70006,6.56009 -70,12 l 0,404.375 c 22.29994,5.43991 45.73796,9.4883 70,12 l 0,-428.375 z"
         style="fill:#e3dbdb;fill-opacity:1;fill-rule:nonzero;stroke:none" />
      <path
         inkscape:connector-curvature="0"
         id="rect4943"
         d="m 286.4622,384.71248 c -25.846,10.23258 -49.36774,22.5104 -70,36.46875 l 0,293.4375 c 20.63226,13.95835 44.154,26.23617 70,36.46875 l 0,-366.375 z"
         style="fill:#e3dbdb;fill-opacity:1;fill-rule:nonzero;stroke:none" />
    </g>
    <rect
       style="fill:#ff6600;fill-opacity:1;fill-rule:nonzero;stroke:none"
       id="rect4945"
       width="70"
       height="244"
       x="532.89996"
       y="-338.46219"
       rx="35"
       ry="30.94203"
       transform="matrix(0,1,-1,0,0,0)" />
  </g>
  <g
     inkscape:groupmode="layer"
     id="layer8"
     inkscape:label="Central Wing Shadow"
     style="display:inline">
    <rect
       ry="25.195654"
       rx="28.5"
       y="-338.46219"
       x="486.53781"
       height="198.68571"
       width="57"
       id="rect3842"
       style="fill:url(#linearGradient3851);fill-opacity:1;fill-rule:nonzero;stroke:none;display:inline"
       transform="matrix(0,1,-1,0,0,0)" />
  </g>
  <g
     inkscape:groupmode="layer"
     id="layer4"
     inkscape:label="Rocket Shadow"
     style="display:inline">
    <path
       inkscape:connector-curvature="0"
       id="path2997"
       d="m 904.4622,515.5378 c -138,70.07531 -346.70034,129.84375 -436,76.84375 -90.31506,-56 -294,-40.75 -294,-40.75 l 0,75.8125 c 61.24522,63.05827 172.68494,105.25 300,105.25 193.29966,0 326,-107.23159 430,-217.15625 z"
       style="fill:url(#linearGradient3776);fill-opacity:1;fill-rule:evenodd;stroke:none;display:inline"
       sodipodi:nodetypes="ccccsc" />
    <path
       sodipodi:nodetypes="ccccsc"
       style="fill:url(#linearGradient3855);fill-opacity:1;fill-rule:evenodd;stroke:none;display:inline"
       d="M 886.4622,515.5378 C 764.18158,636.99456 558.70222,710.0002 444.53214,699.19678 272.24588,668.37482 186.71691,598.13565 186.71691,598.13565 l 0,24.67047 c 58.70693,60.44483 165.52805,100.88793 287.56656,100.88793 185.28839,0 312.48899,-102.7874 412.17873,-208.15625 z"
       id="path3853"
       inkscape:connector-curvature="0" />
    <path
       inkscape:connector-curvature="0"
       id="path3863"
       d="M 886.4622,517.69405 C 764.18158,396.23729 558.70222,323.23165 444.53214,334.03507 272.24588,364.85703 186.71691,435.0962 186.71691,435.0962 l 0,-24.67047 C 245.42384,349.9809 352.24496,309.5378 474.28347,309.5378 c 185.28839,0 312.48899,102.7874 412.17873,208.15625 z"
       style="fill:url(#linearGradient3865);fill-opacity:1;fill-rule:evenodd;stroke:none;display:inline"
       sodipodi:nodetypes="ccccsc" />
  </g>
  <g
     inkscape:groupmode="layer"
     id="layer2"
     inkscape:label="Window"
     style="display:inline">
    <path
       transform="matrix(0,1.8243244,-1.7307692,0,929.00066,234.59184)"
       d="m 228,232 a 74,78 0 1 1 -148,0 74,78 0 1 1 148,0 z"
       sodipodi:ry="78"
       sodipodi:rx="74"
       sodipodi:cy="232"
       sodipodi:cx="154"
       id="path4917"
       style="fill:#808080;fill-opacity:1;fill-rule:nonzero;stroke:none"
       sodipodi:type="arc" />
    <path
       sodipodi:type="arc"
       style="fill:#00cef8;fill-opacity:1;fill-rule:nonzero;stroke:none"
       id="path4915"
       sodipodi:cx="154"
       sodipodi:cy="232"
       sodipodi:rx="74"
       sodipodi:ry="78"
       d="m 228,232 a 74,78 0 1 1 -148,0 74,78 0 1 1 148,0 z"
       transform="matrix(0,1.1557377,-1.0964691,0,781.84304,337.55419)" />
  </g>
  <g
     inkscape:groupmode="layer"
     id="layer6"
     inkscape:label="Window Light">
    <path
       transform="matrix(0,0.67600797,-0.64134089,0,699.7533,395.93257)"
       d="m 228,232 a 74,78 0 1 1 -148,0 74,78 0 1 1 148,0 z"
       sodipodi:ry="78"
       sodipodi:rx="74"
       sodipodi:cy="232"
       sodipodi:cx="154"
       id="path3796"
       style="fill:#ffffff;fill-opacity:0.5;fill-rule:nonzero;stroke:none;display:inline"
       sodipodi:type="arc" />
    <path
       sodipodi:type="arc"
       style="fill:#ffffff;fill-opacity:0.9;fill-rule:nonzero;stroke:none;display:inline"
       id="path3799"
       sodipodi:cx="154"
       sodipodi:cy="232"
       sodipodi:rx="74"
       sodipodi:ry="78"
       d="m 228,232 a 74,78 0 1 1 -148,0 74,78 0 1 1 148,0 z"
       transform="matrix(0,0.25708905,-0.243905,0,626.54817,447.44609)" />
    <path
       sodipodi:type="arc"
       style="fill:#ffffff;fill-opacity:0.5;fill-rule:nonzero;stroke:none;display:inline"
       id="path3905"
       sodipodi:cx="154"
       sodipodi:cy="232"
       sodipodi:rx="74"
       sodipodi:ry="78"
       d="m 228,232 a 74,78 0 1 1 -148,0 74,78 0 1 1 148,0 z"
       transform="matrix(0,0.28411609,-0.26954602,0,541.49688,506.28391)" />
    <path
       transform="matrix(0,0.15573771,-0.14775116,0,480.74047,551.55418)"
       d="m 228,232 a 74,78 0 1 1 -148,0 74,78 0 1 1 148,0 z"
       sodipodi:ry="78"
       sodipodi:rx="74"
       sodipodi:cy="232"
       sodipodi:cx="154"
       id="path3907"
       style="fill:#ffffff;fill-opacity:0.5;fill-rule:nonzero;stroke:none;display:inline"
       sodipodi:type="arc" />
  </g>
  <g
     inkscape:groupmode="layer"
     id="layer5"
     inkscape:label="Window Shadows"
     style="opacity:0.45327107">
    <path
       style="fill:#4d4d4d;fill-opacity:1;fill-rule:nonzero;stroke:none;display:inline"
       d="m 626.99345,505.5378 c 0,-47.23393 -38.29732,-85.53125 -85.53125,-85.53125 -21.59879,0 -41.32231,8.01177 -56.375,21.21875 12.49123,-7.13848 26.95755,-11.21875 42.375,-11.21875 47.23393,0 85.53125,38.29732 85.53125,85.53125 0,25.63514 -11.29053,48.63742 -29.15625,64.3125 25.77772,-14.73144 43.15625,-42.49603 43.15625,-74.3125 z"
       id="path3779"
       inkscape:connector-curvature="0"
       sodipodi:nodetypes="sscsscs" />
    <path
       style="fill:#4d4d4d;fill-opacity:1;fill-rule:nonzero;stroke:none;display:inline"
       d="m 662.4622,515.5378 c 0,-74.55844 -60.44156,-135 -135,-135 -74.55844,0 -135,60.44156 -135,135 0,74.55844 60.44156,135 135,135 74.55844,0 135,-60.44156 135,-135 z m -2,-5 c 0,69.58788 -56.41212,126 -126,126 -69.58788,0 -126,-56.41212 -126,-126 0,-69.58788 56.41212,-126 126,-126 69.58788,0 126,56.41212 126,126 z"
       id="path3789"
       inkscape:connector-curvature="0" />
    <path
       style="opacity:0.5;fill:#000000;fill-opacity:1;fill-rule:nonzero;stroke:none;display:inline"
       d="m 384.36845,536.5378 c 0,74.55844 60.44156,135 135,135 60.54406,0 111.78441,-39.84442 128.90625,-94.75 -22.50381,43.23033 -67.70494,72.75 -119.8125,72.75 -74.55844,0 -135,-60.44156 -135,-135 12.12054,-65.27733 -8.78737,-11.05167 -9.09375,22 z"
       id="path3877"
       inkscape:connector-curvature="0"
       sodipodi:nodetypes="cscscc" />
  </g>
</svg>
