<?xml version="1.0" encoding="UTF-8" standalone="no"?>
<!-- Created with Inkscape (http://www.inkscape.org/) -->

<svg
   xmlns:dc="http://purl.org/dc/elements/1.1/"
   xmlns:cc="http://creativecommons.org/ns#"
   xmlns:rdf="http://www.w3.org/1999/02/22-rdf-syntax-ns#"
   xmlns:svg="http://www.w3.org/2000/svg"
   xmlns="http://www.w3.org/2000/svg"
   xmlns:xlink="http://www.w3.org/1999/xlink"
   xmlns:sodipodi="http://sodipodi.sourceforge.net/DTD/sodipodi-0.dtd"
   xmlns:inkscape="http://www.inkscape.org/namespaces/inkscape"
   width="1000"
   height="1000"
   id="svg2"
   version="1.1"
   inkscape:version="0.48.2 r9819"
   sodipodi:docname="Saucer.svg">
  <defs
     id="defs4">
    <linearGradient
       inkscape:collect="always"
       id="linearGradient4044">
      <stop
         style="stop-color:#000000;stop-opacity:1;"
         offset="0"
         id="stop4046" />
      <stop
         style="stop-color:#003644;stop-opacity:1"
         offset="1"
         id="stop4048" />
    </linearGradient>
    <linearGradient
       inkscape:collect="always"
       id="linearGradient4003">
      <stop
         style="stop-color:#000000;stop-opacity:0.502"
         offset="0"
         id="stop4005" />
      <stop
         style="stop-color:#501616;stop-opacity:0"
         offset="1"
         id="stop4007" />
    </linearGradient>
    <linearGradient
       inkscape:collect="always"
       id="linearGradient3984">
      <stop
         style="stop-color:#ffffff;stop-opacity:0.8"
         offset="0"
         id="stop3986" />
      <stop
         style="stop-color:#ffffff;stop-opacity:0;"
         offset="1"
         id="stop3988" />
    </linearGradient>
    <linearGradient
       inkscape:collect="always"
       id="linearGradient3944">
      <stop
         style="stop-color:#ffffff;stop-opacity:1;"
         offset="0"
         id="stop3946" />
      <stop
         style="stop-color:#ffffff;stop-opacity:0;"
         offset="1"
         id="stop3948" />
    </linearGradient>
    <linearGradient
       inkscape:collect="always"
       id="linearGradient3930">
      <stop
         style="stop-color:#ffffff;stop-opacity:1;"
         offset="0"
         id="stop3932" />
      <stop
         style="stop-color:#ffffff;stop-opacity:0;"
         offset="1"
         id="stop3934" />
    </linearGradient>
    <linearGradient
       inkscape:collect="always"
       id="linearGradient3915">
      <stop
         style="stop-color:#ffffff;stop-opacity:0.40740741"
         offset="0"
         id="stop3917" />
      <stop
         style="stop-color:#ffffff;stop-opacity:0;"
         offset="1"
         id="stop3919" />
    </linearGradient>
    <linearGradient
       inkscape:collect="always"
       id="linearGradient3878">
      <stop
         style="stop-color:#ffffff;stop-opacity:0"
         offset="0"
         id="stop3880" />
      <stop
         style="stop-color:#ffffff;stop-opacity:0.90123457"
         offset="1"
         id="stop3882" />
    </linearGradient>
    <linearGradient
       inkscape:collect="always"
       xlink:href="#linearGradient3878"
       id="linearGradient3884"
       x1="-29.311096"
       y1="866.38831"
       x2="495.13812"
       y2="225.74957"
       gradientUnits="userSpaceOnUse"
       gradientTransform="matrix(0.98349371,-0.18094231,0.18094231,0.98349371,12.712251,572.392)" />
    <linearGradient
       inkscape:collect="always"
       xlink:href="#linearGradient3915"
       id="linearGradient3921"
       x1="337.43109"
       y1="275.84375"
       x2="546.10419"
       y2="464.04477"
       gradientUnits="userSpaceOnUse"
       gradientTransform="matrix(0.98480775,-0.17364818,0.17364818,0.98480775,-93.521215,91.434028)" />
    <linearGradient
       inkscape:collect="always"
       xlink:href="#linearGradient3930"
       id="linearGradient3936"
       x1="354.51495"
       y1="272.29144"
       x2="380.5867"
       y2="500.44388"
       gradientUnits="userSpaceOnUse" />
    <linearGradient
       inkscape:collect="always"
       xlink:href="#linearGradient3944"
       id="linearGradient3954"
       gradientUnits="userSpaceOnUse"
       x1="310.23941"
       y1="312.23422"
       x2="415.90582"
       y2="531.43506" />
    <linearGradient
       inkscape:collect="always"
       xlink:href="#linearGradient3984"
       id="linearGradient3990"
       x1="186.52042"
       y1="489.42664"
       x2="509.32474"
       y2="694.48761"
       gradientUnits="userSpaceOnUse" />
    <linearGradient
       inkscape:collect="always"
       xlink:href="#linearGradient4003"
       id="linearGradient4009"
       x1="803.46936"
       y1="534.11664"
       x2="561.25995"
       y2="733.52075"
       gradientUnits="userSpaceOnUse" />
    <linearGradient
       inkscape:collect="always"
       xlink:href="#linearGradient4003"
       id="linearGradient4013"
       gradientUnits="userSpaceOnUse"
       x1="803.46936"
       y1="534.11664"
       x2="561.25995"
       y2="733.52075"
       gradientTransform="translate(0,-52.362183)" />
    <linearGradient
       inkscape:collect="always"
       xlink:href="#linearGradient4003"
       id="linearGradient4016"
       gradientUnits="userSpaceOnUse"
       gradientTransform="translate(0,-52.362183)"
       x1="803.46936"
       y1="534.11664"
       x2="561.25995"
       y2="733.52075" />
    <linearGradient
       inkscape:collect="always"
       xlink:href="#linearGradient4003"
       id="linearGradient4019"
       gradientUnits="userSpaceOnUse"
       gradientTransform="translate(0,-52.362183)"
       x1="803.46936"
       y1="534.11664"
       x2="561.25995"
       y2="733.52075" />
    <linearGradient
       inkscape:collect="always"
       xlink:href="#linearGradient4003"
       id="linearGradient4023"
       gradientUnits="userSpaceOnUse"
       gradientTransform="translate(0,-52.362183)"
       x1="803.46936"
       y1="534.11664"
       x2="561.25995"
       y2="733.52075" />
    <linearGradient
       inkscape:collect="always"
       xlink:href="#linearGradient4003"
       id="linearGradient4027"
       gradientUnits="userSpaceOnUse"
       gradientTransform="translate(0,-52.362183)"
       x1="803.46936"
       y1="534.11664"
       x2="561.25995"
       y2="733.52075" />
    <linearGradient
       inkscape:collect="always"
       xlink:href="#linearGradient4003"
       id="linearGradient4031"
       gradientUnits="userSpaceOnUse"
       gradientTransform="translate(0,-52.362183)"
       x1="803.46936"
       y1="534.11664"
       x2="561.25995"
       y2="733.52075" />
    <linearGradient
       inkscape:collect="always"
       xlink:href="#linearGradient4003"
       id="linearGradient4035"
       gradientUnits="userSpaceOnUse"
       gradientTransform="matrix(0.98480775,-0.17364818,0.17364818,0.98480775,-102.61381,39.867344)"
       x1="803.46936"
       y1="534.11664"
       x2="561.25995"
       y2="733.52075" />
    <linearGradient
       inkscape:collect="always"
       xlink:href="#linearGradient3984"
       id="linearGradient4039"
       gradientUnits="userSpaceOnUse"
       x1="186.52042"
       y1="489.42664"
       x2="509.32474"
       y2="694.48761"
       gradientTransform="matrix(0.98480775,-0.17364818,0.17364818,0.98480775,-93.521215,91.434028)" />
    <linearGradient
       inkscape:collect="always"
       xlink:href="#linearGradient4044"
       id="linearGradient4050"
       x1="439.8204"
       y1="880.42346"
       x2="-1.2632014"
       y2="9.2678938"
       gradientUnits="userSpaceOnUse" />
  </defs>
  <sodipodi:namedview
     id="base"
     pagecolor="#ffffff"
     bordercolor="#666666"
     borderopacity="1.0"
     inkscape:pageopacity="0.0"
     inkscape:pageshadow="2"
     inkscape:zoom="0.1767767"
     inkscape:cx="1852.6472"
     inkscape:cy="1140.0179"
     inkscape:document-units="px"
     inkscape:current-layer="layer2"
     showgrid="false"
     inkscape:window-width="1440"
     inkscape:window-height="852"
     inkscape:window-x="0"
     inkscape:window-y="0"
     inkscape:window-maximized="1" />
  <metadata
     id="metadata7">
    <rdf:RDF>
      <cc:Work
         rdf:about="">
        <dc:format>image/svg+xml</dc:format>
        <dc:type
           rdf:resource="http://purl.org/dc/dcmitype/StillImage" />
        <dc:title></dc:title>
      </cc:Work>
    </rdf:RDF>
  </metadata>
  <g
     inkscape:groupmode="layer"
     id="layer8"
     inkscape:label="Background"
     sodipodi:insensitive="true">
    <rect
       style="fill:url(#linearGradient4050);fill-opacity:1;stroke:none"
       id="rect4042"
       width="1000"
       height="1000"
       x="0"
       y="1.1368684e-13" />
  </g>
  <g
     inkscape:groupmode="layer"
     id="layer2"
     inkscape:label="Window"
     style="display:inline"
     sodipodi:insensitive="true">
    <path
       style="fill:#00bfcb;fill-opacity:1;stroke:none"
       d="m 434.57819,207.44616 c -128.63106,22.68113 -214.52036,145.34382 -191.83924,273.97483 0.12904,0.73182 0.28055,1.45057 0.41601,2.17962 0.039,-0.026 0.0733,-0.0573 0.11224,-0.0833 1.11641,5.2806 2.38062,10.48034 3.83016,15.6032 0.0679,0.24032 0.1538,0.4824 0.22251,0.72234 0.0687,0.23994 0.12233,0.48817 0.19179,0.72775 0.0694,0.23959 0.1525,0.48309 0.22251,0.72234 0.0702,0.2392 0.11551,0.45812 0.18636,0.69697 0.0709,0.23886 0.15091,0.48385 0.22251,0.72234 0.0714,0.23852 0.15027,0.4842 0.22252,0.72233 0.0722,0.23814 0.14961,0.48455 0.22251,0.72234 0.0729,0.23778 0.14354,0.45413 0.21709,0.69156 0.0737,0.2374 0.14812,0.48529 0.22251,0.72233 0.0744,0.23704 0.14747,0.48565 0.22251,0.72234 0.075,0.23667 0.1414,0.45523 0.21709,0.69156 0.0757,0.23631 0.14598,0.4864 0.22251,0.72233 0.0765,0.23593 0.17073,0.45056 0.24791,0.68613 0.0772,0.23556 0.14459,0.48714 0.22251,0.72233 0.0779,0.23519 0.16934,0.4513 0.24791,0.68613 0.0786,0.23483 0.1433,0.48787 0.22252,0.72233 0.0793,0.23445 0.16794,0.45205 0.24791,0.68613 0.08,0.23408 0.17263,0.4832 0.25333,0.7169 0.0806,0.23372 0.13573,0.45822 0.21709,0.69156 0.0814,0.23332 0.17124,0.48395 0.25334,0.7169 0.082,0.23296 0.16516,0.45354 0.24791,0.68612 0.0828,0.23256 0.16442,0.45393 0.24791,0.68612 0.0835,0.23218 0.1692,0.48509 0.25333,0.7169 0.0841,0.23182 0.16314,0.45469 0.24792,0.68613 0.0848,0.23144 0.16239,0.45507 0.24791,0.68612 0.0855,0.23105 0.19794,0.4808 0.28411,0.71148 0.0863,0.23065 0.161,0.45584 0.24791,0.68612 0.0869,0.23028 0.16036,0.45623 0.24791,0.68613 0.0876,0.2299 0.19049,0.45117 0.27869,0.68069 0.005,-0.006 0.0258,5.3e-4 0.0307,-0.005 21.50683,55.36891 127.38409,82.92099 246.58915,61.90192 118.73575,-20.93632 208.57919,-82.63605 210.54258,-141.80848 0.0118,0.009 0.0244,0.0159 0.0362,0.0253 0.0103,-0.49143 0.0201,-0.97254 0.0274,-1.4645 0.007,-0.49196 -0.008,-0.96661 -0.003,-1.45907 0.004,-0.49246 0.0208,-1.0023 0.0219,-1.49528 10e-4,-0.49297 -0.007,-0.99638 -0.009,-1.48984 -0.002,-0.49346 0.002,-0.96515 -0.003,-1.45908 -0.005,-0.49394 -0.0314,-0.99 -0.0396,-1.48442 -0.008,-0.49441 0.002,-0.99498 -0.009,-1.48985 -0.0113,-0.49487 -0.0252,-0.9891 -0.0396,-1.48442 -0.0144,-0.49532 -0.0221,-0.98866 -0.0396,-1.48442 -0.0176,-0.49576 -0.0496,-0.98283 -0.0704,-1.479 -0.0208,-0.49616 -0.0519,-1.01318 -0.0758,-1.50977 -0.0239,-0.49658 -0.0434,-0.982 -0.0704,-1.47899 -0.0271,-0.49698 -0.0456,-1.01241 -0.0758,-1.50977 -0.0302,-0.49738 -0.0677,-0.97583 -0.10117,-1.47357 -0.0334,-0.49775 -0.0701,-1.00623 -0.1066,-1.50435 -0.0365,-0.49812 -0.0668,-1.00586 -0.1066,-1.50434 -0.0398,-0.49847 -0.089,-0.96933 -0.13194,-1.46814 -0.043,-0.49882 -0.0912,-0.99977 -0.13737,-1.49892 -0.0462,-0.49916 -0.088,-0.99944 -0.13737,-1.49892 -0.0495,-0.49945 -0.11551,-0.99371 -0.1682,-1.49348 -0.0526,-0.49979 -0.0869,-1.02961 -0.1428,-1.52969 -0.0559,-0.50009 -0.10901,-0.99313 -0.16819,-1.49349 -0.0591,-0.50037 -0.13654,-0.98742 -0.19892,-1.48806 -0.0623,-0.50066 -0.13877,-1.01793 -0.20435,-1.51884 -0.0656,-0.50092 -0.13005,-0.98689 -0.19892,-1.48807 -0.045,-0.32715 -0.0966,-0.66295 -0.14293,-0.99022 0.0455,0.0111 0.0884,0.0288 0.13396,0.0398 -0.12187,-0.73145 -0.22552,-1.45864 -0.35456,-2.19046 C 685.8709,270.65451 563.20816,184.76517 434.57719,207.44628 z"
       id="path3822"
       inkscape:connector-curvature="0" />
  </g>
  <g
     inkscape:groupmode="layer"
     id="layer4"
     inkscape:label="Window Highlight 1"
     style="display:inline"
     sodipodi:insensitive="true">
    <path
       inkscape:connector-curvature="0"
       id="path3912"
       d="m 434.57819,207.44616 c -128.63106,22.68113 -214.52036,145.34382 -191.83924,273.97483 0.12904,0.73182 0.28055,1.45057 0.41601,2.17962 0.039,-0.026 0.0733,-0.0573 0.11224,-0.0833 1.11641,5.2806 2.38062,10.48034 3.83016,15.6032 0.0679,0.24032 0.1538,0.4824 0.22251,0.72234 0.0687,0.23994 0.12233,0.48817 0.19179,0.72775 0.0694,0.23959 0.1525,0.48309 0.22251,0.72234 0.0702,0.2392 0.11551,0.45812 0.18636,0.69697 0.0709,0.23886 0.15091,0.48385 0.22251,0.72234 0.0714,0.23852 0.15027,0.4842 0.22252,0.72233 0.0722,0.23814 0.14961,0.48455 0.22251,0.72234 0.0729,0.23778 0.14354,0.45413 0.21709,0.69156 0.0737,0.2374 0.14812,0.48529 0.22251,0.72233 0.0744,0.23704 0.14747,0.48565 0.22251,0.72234 0.075,0.23667 0.1414,0.45523 0.21709,0.69156 0.0757,0.23631 0.14598,0.4864 0.22251,0.72233 0.0765,0.23593 0.17073,0.45056 0.24791,0.68613 0.0772,0.23556 0.14459,0.48714 0.22251,0.72233 0.0779,0.23519 0.16934,0.4513 0.24791,0.68613 0.0786,0.23483 0.1433,0.48787 0.22252,0.72233 0.0793,0.23445 0.16794,0.45205 0.24791,0.68613 0.08,0.23408 0.17263,0.4832 0.25333,0.7169 0.0806,0.23372 0.13573,0.45822 0.21709,0.69156 0.0814,0.23332 0.17124,0.48395 0.25334,0.7169 0.082,0.23296 0.16516,0.45354 0.24791,0.68612 0.0828,0.23256 0.16442,0.45393 0.24791,0.68612 0.0835,0.23218 0.1692,0.48509 0.25333,0.7169 0.0841,0.23182 0.16314,0.45469 0.24792,0.68613 0.0848,0.23144 0.16239,0.45507 0.24791,0.68612 0.0855,0.23105 0.19794,0.4808 0.28411,0.71148 0.0863,0.23065 0.161,0.45584 0.24791,0.68612 0.0869,0.23028 0.16036,0.45623 0.24791,0.68613 0.0876,0.2299 0.19049,0.45117 0.27869,0.68069 0.005,-0.006 0.0258,5.3e-4 0.0307,-0.005 21.50683,55.36891 127.38409,82.92099 246.58915,61.90192 118.73575,-20.93632 208.57919,-82.63605 210.54258,-141.80848 0.0118,0.009 0.0244,0.0159 0.0362,0.0253 0.0103,-0.49143 0.0201,-0.97254 0.0274,-1.4645 0.007,-0.49196 -0.008,-0.96661 -0.003,-1.45907 0.004,-0.49246 0.0208,-1.0023 0.0219,-1.49528 10e-4,-0.49297 -0.007,-0.99638 -0.009,-1.48984 -0.002,-0.49346 0.002,-0.96515 -0.003,-1.45908 -0.005,-0.49394 -0.0314,-0.99 -0.0396,-1.48442 -0.008,-0.49441 0.002,-0.99498 -0.009,-1.48985 -0.0113,-0.49487 -0.0252,-0.9891 -0.0396,-1.48442 -0.0144,-0.49532 -0.0221,-0.98866 -0.0396,-1.48442 -0.0176,-0.49576 -0.0496,-0.98283 -0.0704,-1.479 -0.0208,-0.49616 -0.0519,-1.01318 -0.0758,-1.50977 -0.0239,-0.49658 -0.0434,-0.982 -0.0704,-1.47899 -0.0271,-0.49698 -0.0456,-1.01241 -0.0758,-1.50977 -0.0302,-0.49738 -0.0677,-0.97583 -0.10117,-1.47357 -0.0334,-0.49775 -0.0701,-1.00623 -0.1066,-1.50435 -0.0365,-0.49812 -0.0668,-1.00586 -0.1066,-1.50434 -0.0398,-0.49847 -0.089,-0.96933 -0.13194,-1.46814 -0.043,-0.49882 -0.0912,-0.99977 -0.13737,-1.49892 -0.0462,-0.49916 -0.088,-0.99944 -0.13737,-1.49892 -0.0495,-0.49945 -0.11551,-0.99371 -0.1682,-1.49348 -0.0526,-0.49979 -0.0869,-1.02961 -0.1428,-1.52969 -0.0559,-0.50009 -0.10901,-0.99313 -0.16819,-1.49349 -0.0591,-0.50037 -0.13654,-0.98742 -0.19892,-1.48806 -0.0623,-0.50066 -0.13877,-1.01793 -0.20435,-1.51884 -0.0656,-0.50092 -0.13005,-0.98689 -0.19892,-1.48807 -0.045,-0.32715 -0.0966,-0.66295 -0.14293,-0.99022 0.0455,0.0111 0.0884,0.0288 0.13396,0.0398 -0.12187,-0.73145 -0.22552,-1.45864 -0.35456,-2.19046 C 685.8709,270.65451 563.20816,184.76517 434.57719,207.44628 z"
       style="fill:url(#linearGradient3921);fill-opacity:1;stroke:none" />
  </g>
  <g
     inkscape:groupmode="layer"
     id="layer5"
     inkscape:label="Window Highlight 2"
     style="display:inline"
     sodipodi:insensitive="true">
    <path
       sodipodi:type="arc"
       style="opacity:0.69800002;fill:url(#linearGradient3936);fill-opacity:1;stroke:none"
       id="path3926"
       sodipodi:cx="369"
       sodipodi:cy="404"
       sodipodi:rx="184.46402"
       sodipodi:ry="138.04984"
       d="m 553.46402,404 a 184.46402,138.04984 0 1 1 -368.92804,0 184.46402,138.04984 0 1 1 368.92804,0 z"
       transform="matrix(0.60748576,-0.79433056,0.79433056,0.60748576,-136.68416,434.44895)" />
    <path
       sodipodi:type="arc"
       style="opacity:0.79012326;fill:url(#linearGradient3954);fill-opacity:1;stroke:none"
       id="path3952"
       sodipodi:cx="369"
       sodipodi:cy="404"
       sodipodi:rx="176.85641"
       sodipodi:ry="103.82867"
       d="m 545.85641,404 a 176.85641,103.82867 0 1 1 -353.71282,0 176.85641,103.82867 0 1 1 353.71282,0 z"
       transform="matrix(0.42169145,-0.35002345,0.35002345,0.42169145,95.21781,256.89982)" />
    <path
       sodipodi:type="arc"
       style="fill:#ffffff;fill-opacity:1;stroke:none"
       id="path3942"
       sodipodi:cx="369"
       sodipodi:cy="404"
       sodipodi:rx="176.85641"
       sodipodi:ry="103.82867"
       d="m 545.85641,404 a 176.85641,103.82867 0 1 1 -353.71282,0 176.85641,103.82867 0 1 1 353.71282,0 z"
       transform="matrix(0.12685523,-0.10529573,0.10529573,0.12685523,302.03593,242.88361)" />
  </g>
  <g
     inkscape:label="Body"
     inkscape:groupmode="layer"
     id="layer1"
     transform="translate(0,-52.362183)"
     style="display:inline"
     sodipodi:insensitive="true">
    <path
       style="fill:#d40000;fill-opacity:1;stroke:none"
       d="m 243.26725,535.87953 c -61.82568,41.25834 -96.38452,90.62013 -88.16448,137.23831 15.70448,89.06456 181.43913,134.28349 370.16318,101.00635 188.72404,-33.27714 328.99788,-132.45362 313.2934,-221.51819 -8.22004,-46.61818 -57.57747,-81.18326 -129.78578,-98.8078 0.0463,0.32728 0.0979,0.66307 0.14292,0.99023 0.0689,0.50117 0.13334,0.98714 0.19892,1.48806 0.0656,0.50092 0.14206,1.01818 0.20435,1.51884 0.0624,0.50065 0.13984,0.9877 0.19892,1.48807 0.0591,0.50037 0.11231,0.9934 0.1682,1.49348 0.0559,0.50008 0.0902,1.0299 0.14279,1.52969 0.0526,0.49979 0.11872,0.99403 0.1682,1.49349 0.0494,0.49948 0.0912,0.99976 0.13737,1.49891 0.0462,0.49916 0.0944,1.0001 0.13737,1.49892 0.043,0.49882 0.0922,0.96967 0.13195,1.46814 0.0398,0.49848 0.07,1.00623 0.10659,1.50435 0.0366,0.49812 0.0732,1.00659 0.1066,1.50434 0.0334,0.49775 0.0709,0.9762 0.10117,1.47357 0.0302,0.49737 0.0488,1.01279 0.0758,1.50977 0.027,0.49699 0.0465,0.98241 0.0704,1.479 0.0239,0.49658 0.0551,1.0136 0.0758,1.50977 0.0208,0.49617 0.0528,0.98325 0.0704,1.47899 0.0176,0.49577 0.0251,0.98911 0.0396,1.48442 0.0144,0.49532 0.0283,0.98956 0.0396,1.48443 0.0113,0.49486 6.2e-4,0.99544 0.009,1.48984 0.008,0.49443 0.0345,0.99048 0.0396,1.48443 0.005,0.49393 10e-4,0.96561 0.003,1.45907 0.002,0.49347 0.01,0.99688 0.009,1.48985 -10e-4,0.49297 -0.0177,1.0028 -0.0219,1.49527 -0.004,0.49247 0.0107,0.96712 0.003,1.45908 -0.007,0.49196 -0.017,0.97306 -0.0274,1.4645 -0.0118,-0.009 -0.0244,-0.0158 -0.0361,-0.0253 -1.9634,59.17242 -91.80704,120.87214 -210.54279,141.80846 -119.20506,21.01907 -225.08232,-6.53301 -246.58915,-61.90192 -0.005,0.006 -0.026,-5e-4 -0.0307,0.005 -0.0882,-0.22952 -0.19115,-0.45079 -0.27868,-0.68069 -0.0876,-0.2299 -0.16101,-0.45585 -0.24791,-0.68613 -0.0869,-0.23028 -0.16165,-0.45547 -0.24791,-0.68612 -0.0862,-0.23068 -0.19864,-0.48042 -0.28412,-0.71148 -0.0855,-0.23105 -0.16313,-0.45468 -0.24791,-0.68612 -0.0848,-0.23144 -0.16377,-0.45431 -0.24791,-0.68613 -0.0841,-0.23181 -0.16985,-0.48472 -0.25333,-0.7169 -0.0835,-0.23219 -0.16507,-0.45356 -0.24791,-0.68612 -0.0828,-0.23258 -0.16592,-0.45316 -0.24792,-0.68612 -0.0821,-0.23295 -0.17198,-0.48358 -0.25333,-0.7169 -0.0814,-0.23334 -0.13648,-0.45784 -0.21709,-0.69156 -0.0807,-0.2337 -0.17337,-0.48282 -0.25334,-0.7169 -0.08,-0.23409 -0.16859,-0.45168 -0.24791,-0.68613 -0.0793,-0.23445 -0.14394,-0.4875 -0.22251,-0.72233 -0.0786,-0.23483 -0.16998,-0.45094 -0.24791,-0.68613 -0.0779,-0.23519 -0.14533,-0.48677 -0.22251,-0.72233 -0.0772,-0.23557 -0.17138,-0.4502 -0.24791,-0.68613 -0.0765,-0.23593 -0.14683,-0.48602 -0.22252,-0.72233 -0.0758,-0.23631 -0.14204,-0.45489 -0.21708,-0.69156 -0.0751,-0.23667 -0.14812,-0.4853 -0.22251,-0.72234 -0.0744,-0.23704 -0.14877,-0.48493 -0.22252,-0.72233 -0.0736,-0.23741 -0.14418,-0.45378 -0.21708,-0.69156 -0.073,-0.23777 -0.15026,-0.4842 -0.22252,-0.72234 -0.0722,-0.23813 -0.1511,-0.48381 -0.22251,-0.72233 -0.0716,-0.23849 -0.15166,-0.48348 -0.22251,-0.72234 -0.0709,-0.23885 -0.11616,-0.45777 -0.18636,-0.69697 -0.0701,-0.23924 -0.15316,-0.48275 -0.22251,-0.72234 -0.0695,-0.23958 -0.12308,-0.48781 -0.19179,-0.72775 -0.0687,-0.23994 -0.15465,-0.48202 -0.22251,-0.72234 -1.44954,-5.12286 -2.71375,-10.3226 -3.83016,-15.6032 z"
       id="path3004"
       inkscape:connector-curvature="0" />
    <path
       style="fill:#a02c2c;fill-opacity:1;stroke:none"
       d="m 154.45508,670.34442 c 1.56063,15.68278 12.28764,53.30083 15.92794,69.09637 39.60289,85.81464 194.20254,129.87518 366.31658,99.52683 167.92177,-29.60914 295.9555,-120.08813 309.39638,-211.94605 -0.29792,-19.36362 -2.23607,-56.31091 -7.31236,-72.96371 13.72811,87.2967 -121.44792,183.872 -304.69603,218.44737 -0.21514,0.041 -0.43104,0.073 -0.64628,0.11396 -2.7124,0.50934 -5.4423,1.02309 -8.17536,1.505 -2.73306,0.48191 -5.47404,0.93283 -8.19707,1.3819 -0.21631,0.0351 -0.42989,0.0799 -0.64628,0.11395 -185.03751,30.35085 -345.86073,-14.82927 -361.31983,-102.5022 -0.12476,-0.70753 -0.23853,-1.42016 -0.3437,-2.12891 -0.0974,-0.21608 -0.20862,-0.42813 -0.30404,-0.6445 z"
       id="rect3014"
       inkscape:connector-curvature="0" />
  </g>
  <g
     inkscape:groupmode="layer"
     id="layer3"
     inkscape:label="Stripes"
     style="display:inline"
     sodipodi:insensitive="true">
    <path
       style="fill:#de8787;stroke:none"
       d="m 289.46655,720.69189 31.36478,63.9628 c 11.46924,2.61138 23.38338,4.81804 35.68119,6.55993 l -30.96291,-63.84327 c -12.54157,-1.79364 -24.58273,-4.02219 -36.08306,-6.67946 z"
       id="path3827"
       inkscape:connector-curvature="0" />
    <path
       style="fill:#d35f5f;stroke:none"
       d="m 746.50425,640.07208 c -9.90164,6.43441 -20.43989,12.67 -31.61705,18.64855 l -7.24001,70.51601 c 10.94431,-5.83705 21.39479,-11.93175 31.2658,-18.30103 l 7.59668,-70.83276 -0.005,-0.0307 z"
       id="path3833"
       inkscape:connector-curvature="0" />
    <path
       style="fill:#ffaaaa;fill-opacity:1;stroke:none;display:inline"
       d="m 357.79967,582.92041 -68.33312,137.77148 c 11.49468,2.6559 23.54831,4.88623 36.08306,6.67946 l 54.43981,-141.16041 c -7.62902,-0.86254 -15.04268,-1.96205 -22.18975,-3.29053 z"
       id="path3835"
       inkscape:connector-curvature="0" />
    <path
       style="fill:#e9afaf;fill-opacity:1;stroke:none;display:inline"
       d="m 635.1715,533.98054 c -6.26491,3.69595 -12.84807,7.25879 -19.72612,10.68143 l 99.43639,114.02789 c 11.16176,-5.97142 21.73809,-12.16095 31.6279,-18.58701 L 635.1715,533.98054 z"
       id="path3864"
       inkscape:connector-curvature="0" />
  </g>
  <g
     inkscape:groupmode="layer"
     id="layer6"
     inkscape:label="Upper Body Highlight 1"
     sodipodi:insensitive="true">
    <path
       style="fill:url(#linearGradient4039);fill-opacity:1;stroke:none;display:inline"
       d="m 718.20158,413.11693 c 3.21933,24.72129 0.18087,51.59095 -15.28966,71.90003 -25.29058,36.44071 -65.39694,59.08996 -105.48287,76.6085 -65.92789,27.48193 -138.73633,38.77351 -209.9138,33.39685 -39.86768,-3.66256 -80.66637,-13.376 -113.33707,-37.12733 -16.89148,-12.89092 -28.80284,-31.74154 -33.56786,-52.41069 -1.34587,-4.79203 -1.78125,-11.95592 -7.04516,-5.30973 -31.52252,23.39694 -61.78035,53.64168 -70.58657,93.18046 -4.81656,26.66396 6.37126,54.98509 27.14108,72.26724 34.57322,31.43919 81.10218,43.92393 126.0959,52.10008 89.92246,14.81298 182.56109,5.01834 270.43945,-17.84354 69.35415,-18.71288 137.47415,-47.73212 192.68128,-94.42513 24.44664,-21.55836 46.66286,-48.73036 51.87371,-81.78086 3.11841,-24.05733 -6.72357,-49.2016 -24.63221,-65.37206 -23.9047,-23.92603 -56.46871,-36.88195 -88.47747,-46.11794 l 0.10125,0.93412 z"
       id="path3961"
       inkscape:connector-curvature="0" />
  </g>
  <g
     inkscape:groupmode="layer"
     id="layer7"
     inkscape:label="Upper Body Highlight 2"
     style="display:inline"
     sodipodi:insensitive="true">
    <path
       style="fill:url(#linearGradient4035);fill-opacity:1;stroke:none;display:inline"
       d="m 716.147,412.62244 c 3.5137,25.39477 0.0161,53.07093 -16.53934,73.58745 -26.67451,36.55508 -67.92436,58.87681 -108.78498,75.93467 -67.79304,27.00603 -142.49491,37.4211 -214.95422,29.63213 -37.77261,-4.87782 -76.82251,-15.46866 -106.5664,-40.54846 -15.42541,-13.88688 -24.64696,-33.52302 -28.6617,-53.49186 -1.63935,-4.71061 -6.78791,-1.00822 -8.89655,1.29636 -31.90398,23.65751 -62.18883,54.5797 -70.86616,94.5098 -5.15302,29.52065 9.07278,60.13715 32.71694,77.74996 36.42714,30.26025 84.10463,42.0266 129.96641,49.62295 95.11529,13.91621 192.57968,1.72392 284.45732,-25.0485 65.47274,-19.91697 129.57359,-49.60955 180.43725,-96.05246 22.5775,-21.63121 42.46718,-49.04951 45.21527,-81.08154 1.57506,-25.48422 -11.00478,-50.498 -30.42129,-66.35041 -24.49831,-22.02021 -56.00978,-34.23961 -87.46962,-42.74165 0.12234,0.99386 0.24471,1.98771 0.36707,2.98156 z"
       id="path3964"
       inkscape:connector-curvature="0" />
  </g>
</svg>
